<svg width="22" height="22" viewBox="0 0 22 22" fill="none" xmlns="http://www.w3.org/2000/svg">
<path d="M12.0215 0.0376675C11.9159 0.0668592 4.03419 3.95607 3.98479 4.00323C3.97357 4.01446 4.18913 4.02344 4.54168 4.02344H5.12102L9.49302 2.83107C11.898 2.17539 13.874 1.62973 13.883 1.62075C13.8942 1.61177 13.7864 1.36476 13.6427 1.07509C13.4114 0.601289 13.3688 0.529433 13.2363 0.390212C13.0746 0.217308 12.8725 0.0960507 12.6502 0.0376675C12.4908 -0.00275135 12.1764 -0.00499678 12.0215 0.0376675Z" fill="#D7937A"/>
<path d="M16.4218 1.71057C16.3028 1.73527 8.00342 4.00323 7.99219 4.01446C7.9877 4.01895 10.2826 4.02344 13.094 4.02344C15.9054 4.02344 18.207 4.0167 18.207 4.00772C18.207 3.93362 17.7826 2.47404 17.7287 2.36176C17.6299 2.16191 17.3896 1.9194 17.1898 1.82509C16.9405 1.70608 16.6553 1.66341 16.4218 1.71057Z" fill="#D7937A"/>
<path d="M0.969432 4.90779C0.556259 4.99761 0.210452 5.31198 0.0600029 5.7274L0.00835633 5.87335L0.00161982 12.913C-0.00287119 17.9115 0.00161982 19.9953 0.0195838 20.0986C0.077967 20.4467 0.331709 20.7947 0.64608 20.9609C0.955959 21.1226 0.0555115 21.1091 10.3534 21.1091C17.0068 21.1091 19.6767 21.1024 19.7621 21.0844C20.1932 20.9946 20.5772 20.6286 20.6872 20.1974C20.7186 20.0762 20.7231 19.8269 20.7231 18.2483V16.4385L16.899 16.434L13.0772 16.4272L12.9065 16.3778C12.1184 16.1533 11.5749 15.6144 11.3639 14.8486L11.3032 14.6308V12.9691C11.3032 11.3165 11.3032 11.3052 11.3549 11.1054C11.4223 10.8359 11.6154 10.4519 11.786 10.2453C11.9702 10.0253 12.2172 9.83442 12.4911 9.70194C12.7516 9.57619 12.9088 9.53128 13.2029 9.49984C13.3332 9.48637 14.8287 9.47739 17.0809 9.47739H20.7478L20.7389 7.6967C20.7321 6.13832 20.7276 5.90254 20.6939 5.79701C20.5547 5.33219 20.2044 5.00434 19.7418 4.90779C19.5195 4.86063 1.185 4.86063 0.969432 4.90779Z" fill="#D7937A"/>
<path d="M13.0903 10.3904C12.6435 10.5094 12.3067 10.8575 12.2011 11.3021C12.1517 11.5132 12.1517 14.4076 12.2011 14.6187C12.2954 15.0117 12.5784 15.335 12.9691 15.4922L13.1218 15.5528L17.0267 15.5596C21.2999 15.5663 21.0417 15.5731 21.3246 15.4361C21.4773 15.3597 21.7018 15.1554 21.8029 15.0005C21.8411 14.9376 21.9017 14.8208 21.9331 14.7377L21.9915 14.5873L21.9982 13.0491C22.0027 12.0005 21.996 11.4638 21.9803 11.365C21.9017 10.9091 21.5267 10.5072 21.0686 10.3882C20.8755 10.3388 13.2767 10.341 13.0903 10.3904ZM15.648 12.252C15.9084 12.3957 15.9938 12.6 15.9803 13.0558C15.9713 13.3949 15.9376 13.5005 15.7962 13.6374C15.6457 13.7856 15.5873 13.8014 15.1899 13.8081C14.8935 13.8148 14.8149 13.8081 14.7318 13.7767C14.5948 13.725 14.4623 13.5993 14.3995 13.4645C14.3501 13.3612 14.3456 13.3231 14.3456 12.993C14.3456 12.5798 14.3658 12.5102 14.5252 12.3552C14.6824 12.2026 14.7947 12.1734 15.1876 12.1801C15.5155 12.1846 15.529 12.1868 15.648 12.252Z" fill="#D7937A"/>
</svg>
