<svg width="24" height="26" viewBox="0 0 24 26" fill="none" xmlns="http://www.w3.org/2000/svg">
<path d="M11.3238 0.00562096C8.91054 0.203968 6.86997 1.31591 5.67688 3.08301C5.48154 3.36851 5.12091 4.08676 5.03075 4.36024C4.85645 4.89818 4.81738 5.35799 4.81738 6.90269V8.15288L4.69416 8.20697C4.5469 8.27609 4.27042 8.5676 4.17125 8.75994C4.06907 8.9673 4.027 9.25881 4.04202 9.6495C4.05705 9.95603 4.07207 10.0252 4.22534 10.4789C4.58297 11.5368 4.78733 11.9666 5.06982 12.2581C5.47252 12.6698 5.88425 12.793 6.49131 12.6818L6.58447 12.6638L6.96313 13.4121C7.33579 14.1424 7.60926 14.6142 7.94585 15.092C8.81437 16.3272 9.8572 17.1206 10.9782 17.4031C11.7054 17.5864 12.2975 17.5834 13.0308 17.4001C14.5845 17.0094 15.8827 15.7231 17.0277 13.4331C17.2862 12.9162 17.5206 12.5255 17.728 12.2671C18.0435 11.8704 18.2809 11.2994 18.3471 10.7765C18.3921 10.4128 18.3651 9.91997 18.29 9.75168C18.1667 9.47519 17.9173 9.27384 17.6949 9.27384C17.5897 9.27384 17.5867 9.27083 17.6048 9.17467C17.755 8.27609 17.8181 6.77046 17.737 6.03417C17.6048 4.81704 17.0518 3.74416 16.1712 3.00788C15.3208 2.29262 14.2569 1.83282 13.0368 1.6495C12.592 1.58639 11.471 1.57737 11.0383 1.63748C9.99845 1.77872 8.93458 2.18143 8.18327 2.71636C7.81062 2.98083 7.2847 3.50675 7.05029 3.85235C6.44022 4.74492 6.22684 5.5924 6.22684 7.09503C6.22684 7.72313 6.2599 8.1679 6.36208 8.94326C6.4312 9.46618 6.39213 9.4211 6.07959 8.60667C5.94135 8.24604 5.88425 8.16189 5.70994 8.0507L5.58973 7.97557L5.60776 6.88766C5.62579 5.7637 5.65885 5.38504 5.77606 4.92523C6.05855 3.82531 7.08334 2.53605 8.27343 1.79075C8.87748 1.41208 9.71595 1.0815 10.4402 0.937252C11.0262 0.820047 11.3688 0.786989 11.9999 0.786989C12.3215 0.786989 12.7212 0.805021 12.8865 0.826057C14.9361 1.0815 16.586 2.06422 17.6048 3.63297C17.8332 3.98759 18.1156 4.54657 18.2028 4.82606C18.32 5.1927 18.341 5.43011 18.3711 6.74942C18.3861 7.43462 18.4072 8.11681 18.4192 8.26708C18.4372 8.51952 18.4462 8.54356 18.5364 8.63372C18.6175 8.71486 18.6596 8.73289 18.7648 8.73289C18.912 8.73289 19.0683 8.65476 19.1284 8.54657C19.1585 8.49247 19.1675 8.11681 19.1645 6.70434L19.1615 4.93124L19.0202 4.52553C18.9421 4.30314 18.8069 3.96956 18.7197 3.78924C17.758 1.78173 15.6754 0.387289 13.1419 0.0627213C12.7813 0.014637 11.6423 -0.0184212 11.3238 0.00562096ZM9.69191 5.41809C9.78507 5.49923 9.99243 5.67955 10.1547 5.8208C11.6934 7.16114 13.5176 7.79826 16.2644 7.95153C16.5499 7.96655 16.7903 7.98458 16.7963 7.99059C16.8384 8.02966 16.6942 9.06948 16.5199 10.0041C16.4598 10.3167 16.4177 10.5781 16.4267 10.5841C16.4327 10.5931 16.5108 10.4549 16.595 10.2806C16.7813 9.90194 17.0097 9.63447 17.154 9.63447C17.2682 9.63447 17.4244 9.75769 17.5086 9.91396C17.5657 10.0252 17.5747 10.0853 17.5747 10.3858C17.5717 10.6262 17.5567 10.7915 17.5176 10.9267C17.4365 11.2092 17.2231 11.636 17.0668 11.8283C16.8084 12.1379 16.7392 12.2581 16.4357 12.8922C15.6784 14.4639 15.2246 15.1762 14.6055 15.7502C14.0375 16.2791 13.3553 16.6157 12.6821 16.6998C12.2824 16.7509 11.3117 16.7149 10.9661 16.6367C10.6506 16.5676 10.1758 16.3482 9.84518 16.1198C9.71595 16.0327 9.44848 15.7983 9.24713 15.5999C8.96764 15.3204 8.82639 15.1521 8.62805 14.8486C8.29747 14.3437 8.11114 14.0252 8.13218 14.0011C8.1442 13.9921 8.30949 14.0732 8.50483 14.1814C9.21107 14.5721 9.43045 14.6593 10.338 14.9267C11.0503 15.1341 11.3839 15.1792 11.9008 15.1341C12.3756 15.092 12.5379 14.9989 12.6942 14.6683C12.8114 14.4218 12.8114 14.2415 12.6882 13.9981C12.586 13.7907 12.4718 13.6795 12.3065 13.6285C12.2464 13.6104 11.9308 13.5864 11.6063 13.5804C11.0894 13.5684 11.0052 13.5714 10.915 13.6164C10.7588 13.6946 10.5694 13.8599 10.4973 13.9771C10.4613 14.0342 10.4072 14.0823 10.3771 14.0823C10.1878 14.0823 9.4004 13.7427 8.90453 13.4511C8.10213 12.9763 7.32677 12.2791 7.25164 11.9635C7.23661 11.8974 7.08635 11.4376 6.92106 10.9418C6.75577 10.4459 6.60851 9.98308 6.59349 9.91095C6.56944 9.79375 6.57245 9.78173 6.6566 9.7096C6.71069 9.66452 6.78282 9.63447 6.83992 9.63447C6.98718 9.63447 7.20656 9.88391 7.3989 10.2746C7.48905 10.4519 7.56419 10.5931 7.5702 10.5871C7.57621 10.5811 7.53413 10.3347 7.48004 10.0372C7.26366 8.89818 7.17951 8.08376 7.22159 7.52778C7.24262 7.26633 7.25765 7.21524 7.37485 6.98684C7.69341 6.37076 8.23736 5.79375 8.73624 5.54131C8.91956 5.44814 9.39138 5.27985 9.47553 5.27684C9.50258 5.27684 9.59875 5.33996 9.69191 5.41809Z" fill="#D7937A"/>
<path d="M7.85274 17.5974C7.81067 17.6094 7.10143 17.8047 6.27799 18.0301C4.47183 18.526 4.20736 18.6011 3.51014 18.8355C2.57851 19.1481 1.90834 19.4696 1.40045 19.8483C0.997746 20.1458 0.832457 20.3682 0.589031 20.9332C0.195342 21.8408 0.0751315 22.6492 0.0210368 24.7409L0 25.5312H12H24L23.979 24.7409C23.9549 23.8183 23.9128 23.0339 23.8678 22.6763C23.7716 21.9279 23.5883 21.2938 23.2938 20.6928C23.1375 20.3712 23.0804 20.2871 22.8971 20.1038C22.7799 19.9896 22.5695 19.8183 22.4282 19.7251C21.5417 19.1391 20.6311 18.8145 17.5597 17.988C16.9406 17.8228 16.3426 17.6575 16.2314 17.6214C16.1202 17.5853 16.021 17.5613 16.015 17.5703C16.006 17.5793 16.015 17.6845 16.0331 17.8077C16.0661 18.0542 16.0451 18.8686 15.994 19.1871C15.8828 19.8934 14.7588 21.9911 13.9654 22.9768C13.4996 23.5568 12.7844 24.227 12.2615 24.5726L11.997 24.7499L11.7325 24.5726C11.3599 24.3201 11.0624 24.0767 10.7288 23.7461C9.86326 22.8836 9.19609 21.8949 8.45379 20.3772C8.00902 19.4666 7.95793 19.2412 7.96093 18.2645C7.96394 17.8829 7.95492 17.5673 7.94591 17.5703C7.93689 17.5703 7.89482 17.5823 7.85274 17.5974Z" fill="#D7937A"/>
<path d="M10.7849 18.7192C10.5775 18.9235 10.4062 19.1099 10.4062 19.1369C10.4062 19.215 10.7699 19.7019 11.0163 19.9513C11.1425 20.0805 11.2477 20.2008 11.2477 20.2158C11.2477 20.2308 11.0584 20.7177 10.827 21.2977L10.4062 22.3495L10.5625 22.5809C10.7699 22.8815 11.2357 23.3473 11.6624 23.6808L12.002 23.9453L12.2936 23.7109C12.6602 23.4164 13.1951 22.8845 13.4205 22.5839L13.5948 22.3555L13.1921 21.3367C12.9697 20.7748 12.7774 20.2879 12.7684 20.2518C12.7504 20.2008 12.7984 20.1316 13.0088 19.8912C13.2643 19.6027 13.5918 19.185 13.5918 19.1429C13.5918 19.0978 13.2432 18.7132 13.0419 18.5389L12.8255 18.3495H11.996H11.1666L10.7849 18.7192Z" fill="#D7937A"/>
</svg>
