<svg width="27" height="27" viewBox="0 0 27 27" fill="none" xmlns="http://www.w3.org/2000/svg">
<path d="M3.94005 0.0117149C3.10752 0.0254993 2.35494 0.0475531 2.27224 0.0613365C1.93316 0.124741 1.54446 0.312198 1.17231 0.590626C0.634746 0.995863 0.248806 1.5665 0.058592 2.23914C0.000700905 2.44865 -0.00205581 2.48173 0.000700907 4.36733C0.000700907 5.70434 0.0117278 6.36319 0.0365382 6.54514C0.0971861 7.02756 0.364588 7.54307 0.780852 7.98414C1.29636 8.52997 1.8477 8.81943 2.58099 8.92694C2.74088 8.95175 2.88699 8.97105 2.90353 8.97105C2.92558 8.97105 2.93385 8.16609 2.93385 5.95244V2.93384H13.5059H24.0779V5.9552V8.97656L24.224 8.95727C24.734 8.89386 25.1116 8.78359 25.4535 8.59614C26.1013 8.24052 26.6609 7.58718 26.8952 6.90351C26.9807 6.65541 27 6.20606 27 4.46382C27 2.63887 26.9807 2.25844 26.8787 1.99104C26.5589 1.13921 25.889 0.466574 25.0234 0.124741L24.7533 0.0172291L15.1048 0.00620174C9.79808 -0.00206852 4.77534 0.000688553 3.94005 0.0117149Z" fill="#D7937A"/>
<path d="M5.01148 11.354L5.02802 17.711L5.11348 17.9233C5.4884 18.8743 6.11969 19.5056 7.07627 19.8833L7.29129 19.9688H13.5049H19.7186L19.9281 19.886C20.8626 19.5139 21.4718 18.9184 21.8578 18.0005L21.9763 17.7193L21.9956 11.3595L22.0177 4.99977H21.0335H20.0521V10.0115V15.0232L19.7572 15.0535C19.4236 15.0894 18.8943 15.2465 18.6214 15.3926C18.263 15.5856 17.7806 16.0377 17.5187 16.4264C17.2734 16.793 17.0859 17.3581 17.0556 17.813L17.039 18.0666L13.5077 18.0611L9.97633 18.0528L9.94325 17.7496C9.89639 17.3581 9.82196 17.0962 9.6731 16.7737C9.37261 16.1424 8.87089 15.6379 8.2396 15.3347C7.90328 15.1748 7.64691 15.1004 7.24718 15.0563L6.94394 15.0204L6.93567 10.0087L6.93016 4.99977H5.9598H4.99219L5.01148 11.354Z" fill="#D7937A"/>
<path d="M13.1048 6.02434C11.8257 6.15666 10.7919 6.84584 10.2433 7.94026C10.1 8.22971 10.0697 8.37306 10.0531 8.84998C10.0311 9.47299 10.0586 9.6191 10.2792 10.0629C10.3757 10.2587 10.5163 10.5012 10.5934 10.6005C11.0924 11.2566 11.7733 11.6784 12.6389 11.8741C12.887 11.9292 13.0001 11.9375 13.477 11.9375C14.2185 11.9375 14.6348 11.852 15.1916 11.5929C15.9497 11.2373 16.6086 10.5205 16.8705 9.75969C16.9449 9.54743 16.9477 9.51986 16.9477 8.98781C16.9477 8.36479 16.9339 8.3069 16.7051 7.84653C16.162 6.77141 15.0014 6.07396 13.6562 6.01331C13.4825 6.0078 13.2344 6.01056 13.1048 6.02434Z" fill="#D7937A"/>
<path d="M4.99058 19.9773C5.04571 20.9228 5.30209 21.5651 5.83138 22.0861C6.20078 22.4528 6.57018 22.6981 7.02228 22.8828L7.25936 22.9766H13.5088H19.7611L20.0671 22.8442C20.4723 22.6678 20.8086 22.4418 21.1146 22.1358C21.5915 21.6589 21.8259 21.226 21.9389 20.6003C21.9802 20.3797 22.0354 19.7788 22.0188 19.754C22.0133 19.7484 21.903 19.8394 21.7707 19.958C21.3517 20.3329 20.7452 20.6885 20.2021 20.8815C19.9899 20.9559 19.8906 20.9724 19.513 20.9972C18.8541 21.0441 7.86583 21.0441 7.38065 21C7.11049 20.9752 6.95887 20.9449 6.77417 20.8787C6.24488 20.6912 5.71008 20.3742 5.25522 19.9745C5.11739 19.8504 4.99609 19.7512 4.99058 19.7512C4.98231 19.7512 4.98231 19.8532 4.99058 19.9773Z" fill="#D7937A"/>
<path d="M4.98316 22.8982C4.99143 22.9782 5.00522 23.1381 5.01349 23.2511C5.05484 23.7501 5.17613 24.1636 5.38013 24.5054C5.76607 25.1505 6.3312 25.6164 7.10308 25.9224L7.3181 26.0078H13.5069H19.6958L19.9356 25.9086C20.4732 25.688 20.8178 25.462 21.1734 25.0898C21.5814 24.6625 21.8019 24.2601 21.9149 23.7252C21.9701 23.4661 22.0445 22.7935 22.0197 22.7604C22.0169 22.7549 21.8929 22.8596 21.744 22.9892C21.4077 23.2869 21.1458 23.4606 20.7543 23.6508C20.3932 23.83 20.0211 23.9568 19.7564 23.9954C19.3539 24.0505 17.2064 24.0809 13.4904 24.0809C9.80742 24.0809 7.62685 24.0505 7.2354 23.9954C6.97351 23.9596 6.662 23.8493 6.28158 23.6646C5.86255 23.4606 5.60618 23.2897 5.26435 22.992C5.11548 22.8624 4.98868 22.7549 4.98041 22.7549C4.97489 22.7549 4.97489 22.821 4.98316 22.8982Z" fill="#D7937A"/>
</svg>
